<svg width="41" height="28" viewBox="0 0 41 28" fill="none" xmlns="http://www.w3.org/2000/svg">
<path d="M0 3.5C0 1.567 1.5734 0 3.51429 0H37.4857C39.4266 0 41 1.567 41 3.5V24.5C41 26.433 39.4266 28 37.4857 28H3.51428C1.5734 28 0 26.433 0 24.5V3.5Z" fill="#3E3F67"/>
<path fill-rule="evenodd" clip-rule="evenodd" d="M9.95875 11.7554C9.70542 11.6316 9.40538 11.5696 9.05812 11.5696C8.89167 11.5696 8.73619 11.5878 8.59162 11.6242C8.4468 11.6608 8.31042 11.7079 8.16585 11.7735L8.83036 8.95764L7.14851 9.2199L5.27143 17.165C5.48116 17.2671 5.70351 17.3472 5.93873 17.4054C6.1737 17.4637 6.39613 17.5074 6.60595 17.5366C6.81568 17.5656 7.00205 17.582 7.16482 17.5858C7.32758 17.5893 7.44151 17.5912 7.50658 17.5912C8.01283 17.5912 8.4831 17.4946 8.91707 17.3016C9.35112 17.1087 9.72714 16.8464 10.0455 16.5148C10.3638 16.1833 10.6152 15.7935 10.7996 15.3454C10.9841 14.8973 11.0763 14.4219 11.0763 13.9192C11.0763 13.5914 11.0364 13.2854 10.9569 13.0012C10.8773 12.717 10.7543 12.4695 10.588 12.258C10.4216 12.0468 10.2118 11.8793 9.95875 11.7554ZM8.36388 16.0611C8.13964 16.185 7.9009 16.2469 7.64782 16.2469H7.45251C7.40178 16.2469 7.32933 16.2427 7.12009 16.2058L7.82755 13.2079C7.9577 13.0914 8.09809 13.0158 8.26086 12.9792C8.42363 12.9428 8.52845 12.933 8.62983 12.933C8.9407 12.933 9.18124 13.0229 9.29705 13.2197C9.41269 13.4163 9.47064 13.6896 9.47064 14.0392C9.47064 14.3235 9.42351 14.5967 9.32959 14.859C9.2355 15.1212 9.10715 15.3562 8.94447 15.5639C8.7817 15.7715 8.58803 15.9373 8.36388 16.0611Z" fill="#0A5CB9"/>
<path d="M14.4076 10.8682L14.6547 9.82123H13.0436L12.7965 10.8682H14.4076Z" fill="#0A5CB9"/>
<path d="M16.2502 16.114C16.3686 16.1739 16.5318 16.2036 16.7394 16.2036C16.9173 16.2036 17.0897 16.1868 17.2565 16.1532C17.3655 16.1313 17.4787 16.1054 17.5914 16.0667L17.2559 17.4803C17.2295 17.4868 17.1888 17.4967 17.162 17.5029C16.9024 17.5625 16.5948 17.5924 16.239 17.5924C15.7275 17.5924 15.3308 17.5158 15.0492 17.3628C14.7673 17.2099 14.5672 17.0008 14.4487 16.7356C14.33 16.4707 14.278 16.1664 14.293 15.8228C14.3078 15.4795 14.3597 15.1172 14.4487 14.7364L15.5385 10.0995L17.262 9.83063L16.8395 11.5667H18.6854L18.3518 12.9332H16.517L16.0278 14.994C15.9832 15.1659 15.9555 15.3264 15.9443 15.4756C15.9333 15.625 15.9516 15.7539 16 15.862C16.0481 15.9703 16.1314 16.0544 16.2502 16.114Z" fill="#0A5CB9"/>
<path d="M36.314 11.5685H34.7029L33.7658 15.5395H33.7675L33.6387 16.0857C33.5488 16.1111 33.4593 16.134 33.3705 16.1519C33.2037 16.1855 33.0313 16.2023 32.8534 16.2023C32.6457 16.2023 32.4826 16.1725 32.3641 16.1127C32.2454 16.053 32.1621 15.9691 32.1139 15.8607C32.0656 15.7525 32.0472 15.6238 32.0583 15.4743C32.0695 15.325 32.0973 15.1645 32.1418 14.9927L32.631 12.9318L32.9535 11.5654L32.9535 11.565H31.3077L30.5627 14.7351C30.4738 15.1159 30.4218 15.4781 30.407 15.8215C30.392 16.165 30.444 16.4694 30.5627 16.7343C30.6812 16.9994 30.8813 17.2086 31.1632 17.3616C31.4448 17.5145 31.8415 17.5912 32.353 17.5912C32.7088 17.5912 33.0164 17.5613 33.276 17.5015C33.2865 17.4991 33.2965 17.4965 33.3068 17.494L33.3061 17.497C33.2339 17.824 33.0879 18.0893 32.8535 18.2963C32.6188 18.5035 32.2707 18.6071 31.809 18.6071C31.6119 18.6071 31.4328 18.5953 31.2705 18.5727L30.9535 19.9164C31.1679 19.9444 31.4057 19.9588 31.6683 19.9588C32.1589 19.9588 32.5883 19.9024 32.9563 19.7898C33.3243 19.6771 33.6399 19.5064 33.9033 19.2774C34.1666 19.0485 34.3867 18.7613 34.5635 18.4163C34.7402 18.071 34.8828 17.6624 34.991 17.1899L36.1058 12.4696C36.105 12.4692 36.1041 12.4689 36.1033 12.4685L36.1018 12.4679L36.314 11.5685Z" fill="#0A5CB9"/>
<path d="M11.2064 17.5925L12.6287 11.5652H14.2398L12.8175 17.5925H11.2064Z" fill="#0A5CB9"/>
<path fill-rule="evenodd" clip-rule="evenodd" d="M24.0897 13.9534C24.0897 14.4883 24.0025 14.9773 23.8279 15.4204C23.6534 15.8638 23.4115 16.2466 23.1024 16.5688C22.7931 16.8913 22.4221 17.1422 21.9895 17.3216C21.5567 17.501 21.0857 17.5908 20.5765 17.5908C20.3292 17.5908 20.0818 17.5689 19.8347 17.5249L19.3436 19.5139H17.7289L19.6033 11.5688C19.799 11.5686 20.5977 11.5687 21.1942 11.5687L21.7549 11.5688C22.1622 11.5688 22.5132 11.6311 22.8078 11.7556C23.1024 11.8802 23.3441 12.0505 23.5333 12.2665C23.7223 12.4827 23.8623 12.7355 23.9534 13.0248C24.0442 13.3143 24.0897 13.6237 24.0897 13.9534ZM20.129 16.206C20.2526 16.2354 20.4053 16.25 20.5873 16.25C20.8709 16.25 21.129 16.1969 21.3619 16.0907C21.5946 15.9845 21.7929 15.8362 21.9565 15.6456C22.1202 15.4552 22.2473 15.2263 22.3384 14.9588C22.4292 14.6914 22.4748 14.3966 22.4748 14.0742C22.4748 13.7593 22.4056 13.4917 22.2675 13.272C22.1292 13.0521 21.8869 12.9353 21.545 12.9339C21.306 12.933 20.9091 12.933 20.9091 12.933L20.129 16.206Z" fill="#0A5CB9"/>
<path fill-rule="evenodd" clip-rule="evenodd" d="M29.5557 14.9606C29.4544 15.3754 29.4256 15.792 29.4689 16.2104C29.5124 16.629 29.6713 17.2703 29.8263 17.5913H28.2672C28.1253 17.3495 28.0939 17.2035 28.0722 17.1025C28.0647 17.068 28.0584 17.0387 28.0492 17.0127C27.8469 17.1802 27.6229 17.3184 27.3774 17.4275C27.1316 17.5367 26.8571 17.5913 26.5536 17.5913C26.1923 17.5913 25.8834 17.5275 25.6271 17.4003C25.3705 17.273 25.161 17.102 24.9984 16.8873C24.8358 16.6727 24.7183 16.4216 24.6463 16.1341C24.5739 15.8466 24.5378 15.5391 24.5378 15.2117C24.5378 14.7095 24.6262 14.2365 24.8034 13.7926C24.9803 13.3488 25.226 12.9612 25.5404 12.63C25.8546 12.2989 26.6131 11.5688 27.8578 11.5688L28.6124 11.5687C29.0558 11.5687 29.6136 11.5687 30.3573 11.5687L29.5557 14.9606ZM28.4118 12.9333C27.6605 12.9333 27.5171 12.9333 27.2093 13.0941C26.9908 13.2082 26.8099 13.3797 26.6511 13.5798C26.4921 13.78 26.3675 14.011 26.2773 14.2729C26.1868 14.535 26.1417 14.8078 26.1417 15.0916C26.1417 15.4409 26.1995 15.7176 26.3152 15.9213C26.4306 16.1251 26.6439 16.2269 26.9546 16.2269C27.1207 16.2269 27.2706 16.1942 27.4043 16.1286C27.5379 16.0632 27.6807 15.954 27.8324 15.8012C27.8468 15.6194 27.8703 15.4284 27.9029 15.2281C27.9325 15.0455 27.9695 14.8749 28.0032 14.7191L28.0034 14.7185L28.0128 14.675L28.4118 12.9333Z" fill="#0A5CB9"/>
</svg>
